<?xml version="1.0" encoding="UTF-8" standalone="no"?>
<svg
   xmlns:dc="http://purl.org/dc/elements/1.1/"
   xmlns:cc="http://creativecommons.org/ns#"
   xmlns:rdf="http://www.w3.org/1999/02/22-rdf-syntax-ns#"
   xmlns:svg="http://www.w3.org/2000/svg"
   xmlns="http://www.w3.org/2000/svg"
   height="23.5"
   width="31.999001"
   xml:space="preserve"
   viewBox="0 0 31.999 23.499999"
   y="0px"
   x="0px"
   id="Capa_1"
   version="1.1"><metadata
   id="metadata995"><rdf:RDF><cc:Work
       rdf:about=""><dc:format>image/svg+xml</dc:format><dc:type
         rdf:resource="http://purl.org/dc/dcmitype/StillImage" /><dc:title></dc:title></cc:Work></rdf:RDF></metadata><defs
   id="defs993" />
<g
   transform="translate(0.04793795,-4.1845889)"
   id="g958">
	<path
   d="M 25.913,12.642 C 25.476,8.08 21.677,4.5 16.999,4.5 13.38,4.5 10.282,6.648 8.853,9.73 8.423,9.594 7.975,9.5 7.5,9.5 5.015,9.5 3,11.516 3,14 3,14.494 3.099,14.961 3.246,15.404 1.313,16.531 0,18.599 0,20.998 c 0,3.59 2.91,6.5 6.5,6.5 V 27.5 h 17.999 v -0.002 c 4.143,0 7.5,-3.357 7.5,-7.5 0,-3.657 -2.621,-6.693 -6.086,-7.356 z M 24.499,25.497 V 25.5 H 6.5 C 4.019,25.497 2,23.479 2,20.998 2,19.398 2.843,17.953 4.254,17.131 5.625,16.344 5.719,16.188 5.144,14.774 5.047,14.483 5,14.23 5,14.001 c 0,-1.379 1.121,-2.5 2.5,-2.5 0,0 0.656,-0.047 1.353,0.23 1.147,0.457 1.272,0.02 1.814,-1.159 1.147,-2.473 3.632,-4.072 6.332,-4.072 3.6,0 6.576,2.723 6.924,6.334 0.123,1.432 0.123,1.432 1.615,1.773 2.586,0.494 4.461,2.762 4.461,5.391 0,3.033 -2.467,5.499 -5.5,5.499 z"
   style="fill:#010002"
   id="cloud" />
</g>
<g
   transform="translate(0,-8.4990035)"
   id="g960">
</g>
<g
   transform="translate(0,-8.4990035)"
   id="g962">
</g>
<g
   transform="translate(0,-8.4990035)"
   id="g964">
</g>
<g
   transform="translate(0,-8.4990035)"
   id="g966">
</g>
<g
   transform="translate(0,-8.4990035)"
   id="g968">
</g>
<g
   transform="translate(0,-8.4990035)"
   id="g970">
</g>
<g
   transform="translate(0,-8.4990035)"
   id="g972">
</g>
<g
   transform="translate(0,-8.4990035)"
   id="g974">
</g>
<g
   transform="translate(0,-8.4990035)"
   id="g976">
</g>
<g
   transform="translate(0,-8.4990035)"
   id="g978">
</g>
<g
   transform="translate(0,-8.4990035)"
   id="g980">
</g>
<g
   transform="translate(0,-8.4990035)"
   id="g982">
</g>
<g
   transform="translate(0,-8.4990035)"
   id="g984">
</g>
<g
   transform="translate(0,-8.4990035)"
   id="g986">
</g>
<g
   transform="translate(0,-8.4990035)"
   id="g988">
</g>
</svg>