<?xml version="1.0" encoding="UTF-8" standalone="no"?>
<svg
   xmlns:dc="http://purl.org/dc/elements/1.1/"
   xmlns:cc="http://creativecommons.org/ns#"
   xmlns:rdf="http://www.w3.org/1999/02/22-rdf-syntax-ns#"
   xmlns:svg="http://www.w3.org/2000/svg"
   xmlns="http://www.w3.org/2000/svg"
   version="1.1"
   id="Capa_1"
   x="0px"
   y="0px"
   viewBox="0 0 32 24"
   xml:space="preserve"
   width="32"
   height="24"><metadata
   id="metadata241"><rdf:RDF><cc:Work
       rdf:about=""><dc:format>image/svg+xml</dc:format><dc:type
         rdf:resource="http://purl.org/dc/dcmitype/StillImage" /><dc:title></dc:title></cc:Work></rdf:RDF></metadata><defs
   id="defs239" />
<g
   id="g204"
   transform="translate(-0.04790419,-3.8802393)">
	<g
   id="g202">
		
		<path
   style="fill:#030104"
   d="M 27.586,12.712 C 26.66,10.251 24.284,8.5 21.5,8.5 20.859,8.5 20.24,8.593 19.654,8.766 18.068,6.205 15.233,4.5 12,4.5 7.095,4.5 3.107,8.424 3.002,13.303 1.208,14.342 0,16.283 0,18.5 c 0,3.312 2.687,6 6,6 H 7.752 C 7.467,23.87 7.257,23.2 7.132,22.5 H 5.997 C 3.794,22.5 2,20.709 2,18.5 2,16.607 3.318,15.018 5.086,14.604 5.03,14.245 5,13.876 5,13.5 c 0,-3.866 3.134,-7 7,-7 3.162,0 5.834,2.097 6.702,4.975 0.769,-0.611 1.739,-0.975 2.798,-0.975 2.316,0 4.225,1.75 4.473,4 h 0.03 c 2.203,0 3.997,1.791 3.997,4 0,2.205 -1.789,4 -3.997,4 h -2.135 c -0.125,0.7 -0.335,1.37 -0.62,2 H 26 c 3.312,0 6,-2.693 6,-6 0,-2.765 -1.87,-5.093 -4.414,-5.788 z"
   id="path200" />
	<g
   id="g301"
   transform="matrix(0.03712055,0,0,0.03712055,7.4185773,11.337957)"
   style="fill:#008000"><g
     transform="matrix(0.80780526,0,0,0.80780526,45.169879,73.734704)"
     id="g245"
     style="fill:#008000">
	<path
   id="path243"
   d="m 405.584,262.377 h -26.899 v 124.201 c 0,22 -17.7,39.799 -39.801,39.799 h -236.3 c -22,0 -39.8,-17.699 -39.8,-39.799 V 262.377 h -26.9 c -30,0 -50.2,-36.699 -23.3,-64.299 l 159.2,-162.1 c 13.5,-14.1 31.2,-20.8 49,-20.8 17.8,0 35.5,6.7 49.6,20.8 l 36.101,36.7 v -32.4 c 0,-14.1 11.6,-25.1 25.7,-25.1 h 21.399 c 13.5,0 25.101,11 25.101,25.1 v 106.5 l 50.199,51.4 c 26.801,27.5 7.301,64.199 -23.3,64.199 z"
   style="fill:#008000" />
</g><g
     id="g247"
     style="fill:#008000">
</g><g
     id="g249"
     style="fill:#008000">
</g><g
     id="g251"
     style="fill:#008000">
</g><g
     id="g253"
     style="fill:#008000">
</g><g
     id="g255"
     style="fill:#008000">
</g><g
     id="g257"
     style="fill:#008000">
</g><g
     id="g259"
     style="fill:#008000">
</g><g
     id="g261"
     style="fill:#008000">
</g><g
     id="g263"
     style="fill:#008000">
</g><g
     id="g265"
     style="fill:#008000">
</g><g
     id="g267"
     style="fill:#008000">
</g><g
     id="g269"
     style="fill:#008000">
</g><g
     id="g271"
     style="fill:#008000">
</g><g
     id="g273"
     style="fill:#008000">
</g><g
     id="g275"
     style="fill:#008000">
</g></g></g>
</g>
<g
   id="g206"
   transform="translate(0,-8)">
</g>
<g
   id="g208"
   transform="translate(0,-8)">
</g>
<g
   id="g210"
   transform="translate(0,-8)">
</g>
<g
   id="g212"
   transform="translate(0,-8)">
</g>
<g
   id="g214"
   transform="translate(0,-8)">
</g>
<g
   id="g216"
   transform="translate(0,-8)">
</g>
<g
   id="g218"
   transform="translate(0,-8)">
</g>
<g
   id="g220"
   transform="translate(0,-8)">
</g>
<g
   id="g222"
   transform="translate(0,-8)">
</g>
<g
   id="g224"
   transform="translate(0,-8)">
</g>
<g
   id="g226"
   transform="translate(0,-8)">
</g>
<g
   id="g228"
   transform="translate(0,-8)">
</g>
<g
   id="g230"
   transform="translate(0,-8)">
</g>
<g
   id="g232"
   transform="translate(0,-8)">
</g>
<g
   id="g234"
   transform="translate(0,-8)">
</g>
</svg>