<?xml version="1.0" encoding="UTF-8" standalone="no"?>
<svg
   xmlns:dc="http://purl.org/dc/elements/1.1/"
   xmlns:cc="http://creativecommons.org/ns#"
   xmlns:rdf="http://www.w3.org/1999/02/22-rdf-syntax-ns#"
   xmlns:svg="http://www.w3.org/2000/svg"
   xmlns="http://www.w3.org/2000/svg"
   height="24"
   width="32"
   xml:space="preserve"
   viewBox="0 0 32 24"
   y="0px"
   x="0px"
   id="Capa_1"
   version="1.1"><metadata
   id="metadata241"><rdf:RDF><cc:Work
       rdf:about=""><dc:format>image/svg+xml</dc:format><dc:type
         rdf:resource="http://purl.org/dc/dcmitype/StillImage" /><dc:title></dc:title></cc:Work></rdf:RDF></metadata><defs
   id="defs239" />
<g
   transform="translate(-0.04790419,-3.8802393)"
   id="g204">
	<g
   id="g202">
		<path
   id="path198"
   d="M 19.973,20.5 C 19.99,20.664 20,20.831 20,21 c 0,2.484 -2.016,4.5 -4.5,4.5 -2.485,0 -4.5,-2.016 -4.5,-4.5 0,-2.316 1.75,-4.225 4,-4.473 V 18.5 l 4,-3 -4,-3 v 2.019 C 11.644,14.774 9,17.578 9,21 c 0,3.59 2.91,6.5 6.5,6.5 3.59,0 6.5,-2.91 6.5,-6.5 0,-0.168 -0.007,-0.335 -0.018,-0.5 z"
   style="fill:#ff6600" />
		<path
   id="path200"
   d="M 27.586,12.712 C 26.66,10.251 24.284,8.5 21.5,8.5 20.859,8.5 20.24,8.593 19.654,8.766 18.068,6.205 15.233,4.5 12,4.5 7.095,4.5 3.107,8.424 3.002,13.303 1.208,14.342 0,16.283 0,18.5 c 0,3.312 2.687,6 6,6 H 7.752 C 7.467,23.87 7.257,23.2 7.132,22.5 H 5.997 C 3.794,22.5 2,20.709 2,18.5 2,16.607 3.318,15.018 5.086,14.604 5.03,14.245 5,13.876 5,13.5 c 0,-3.866 3.134,-7 7,-7 3.162,0 5.834,2.097 6.702,4.975 0.769,-0.611 1.739,-0.975 2.798,-0.975 2.316,0 4.225,1.75 4.473,4 h 0.03 c 2.203,0 3.997,1.791 3.997,4 0,2.205 -1.789,4 -3.997,4 h -2.135 c -0.125,0.7 -0.335,1.37 -0.62,2 H 26 c 3.312,0 6,-2.693 6,-6 0,-2.765 -1.87,-5.093 -4.414,-5.788 z"
   style="fill:#030104" />
	</g>
</g>
<g
   transform="translate(0,-8)"
   id="g206">
</g>
<g
   transform="translate(0,-8)"
   id="g208">
</g>
<g
   transform="translate(0,-8)"
   id="g210">
</g>
<g
   transform="translate(0,-8)"
   id="g212">
</g>
<g
   transform="translate(0,-8)"
   id="g214">
</g>
<g
   transform="translate(0,-8)"
   id="g216">
</g>
<g
   transform="translate(0,-8)"
   id="g218">
</g>
<g
   transform="translate(0,-8)"
   id="g220">
</g>
<g
   transform="translate(0,-8)"
   id="g222">
</g>
<g
   transform="translate(0,-8)"
   id="g224">
</g>
<g
   transform="translate(0,-8)"
   id="g226">
</g>
<g
   transform="translate(0,-8)"
   id="g228">
</g>
<g
   transform="translate(0,-8)"
   id="g230">
</g>
<g
   transform="translate(0,-8)"
   id="g232">
</g>
<g
   transform="translate(0,-8)"
   id="g234">
</g>
</svg>