<?xml version="1.0" encoding="iso-8859-1"?>
<!-- Generator: Adobe Illustrator 18.1.1, SVG Export Plug-In . SVG Version: 6.00 Build 0)  -->
<svg version="1.1" id="Capa_1" xmlns="http://www.w3.org/2000/svg" xmlns:xlink="http://www.w3.org/1999/xlink" x="0px" y="0px"
	 viewBox="0 0 499.233 499.233" style="enable-background:new 0 0 499.233 499.233;" xml:space="preserve">
<g>
	<g>
		<path d="M427.55,74.517c-0.283-0.283-0.567-0.567-0.85-0.567C381.367,28.333,318.75,0,249.617,0C111.917,0,0,111.917,0,249.617
			s111.917,249.617,249.617,249.617s249.617-111.917,249.617-249.617c0-67.717-27.2-129.2-70.833-174.25
			C428.117,75.083,427.833,74.8,427.55,74.517z M34,249.617C34,130.617,130.617,34,249.617,34C303.733,34,353.033,54.117,391,86.983
			L86.983,391C54.117,353.033,34,303.733,34,249.617z M249.617,465.233c-52.7,0-100.867-18.983-138.55-50.433L414.8,111.067
			c31.45,37.4,50.433,85.85,50.433,138.55C465.233,368.617,368.617,465.233,249.617,465.233z"/>
	</g>
</g>
<g>
</g>
<g>
</g>
<g>
</g>
<g>
</g>
<g>
</g>
<g>
</g>
<g>
</g>
<g>
</g>
<g>
</g>
<g>
</g>
<g>
</g>
<g>
</g>
<g>
</g>
<g>
</g>
<g>
</g>
</svg>
