<?xml version="1.0" encoding="UTF-8" standalone="no"?>
<svg
   xmlns:dc="http://purl.org/dc/elements/1.1/"
   xmlns:cc="http://creativecommons.org/ns#"
   xmlns:rdf="http://www.w3.org/1999/02/22-rdf-syntax-ns#"
   xmlns:svg="http://www.w3.org/2000/svg"
   xmlns="http://www.w3.org/2000/svg"
   xml:space="preserve"
   style="enable-background:new 0 0 499.233 499.233;"
   viewBox="0 0 499.233 499.233"
   y="0px"
   x="0px"
   id="Capa_1"
   version="1.1"><metadata
   id="metadata105"><rdf:RDF><cc:Work
       rdf:about=""><dc:format>image/svg+xml</dc:format><dc:type
         rdf:resource="http://purl.org/dc/dcmitype/StillImage" /><dc:title></dc:title></cc:Work></rdf:RDF></metadata><defs
   id="defs103" />
<g
   style="fill:#f9f9f9"
   id="g68">
	<g
   style="fill:#f9f9f9"
   id="g66">
		<path
   style="fill:#f9f9f9"
   id="path64"
   d="M427.55,74.517c-0.283-0.283-0.567-0.567-0.85-0.567C381.367,28.333,318.75,0,249.617,0C111.917,0,0,111.917,0,249.617    s111.917,249.617,249.617,249.617s249.617-111.917,249.617-249.617c0-67.717-27.2-129.2-70.833-174.25    C428.117,75.083,427.833,74.8,427.55,74.517z M34,249.617C34,130.617,130.617,34,249.617,34C303.733,34,353.033,54.117,391,86.983    L86.983,391C54.117,353.033,34,303.733,34,249.617z M249.617,465.233c-52.7,0-100.867-18.983-138.55-50.433L414.8,111.067    c31.45,37.4,50.433,85.85,50.433,138.55C465.233,368.617,368.617,465.233,249.617,465.233z" />
	</g>
</g>
<g
   id="g70">
</g>
<g
   id="g72">
</g>
<g
   id="g74">
</g>
<g
   id="g76">
</g>
<g
   id="g78">
</g>
<g
   id="g80">
</g>
<g
   id="g82">
</g>
<g
   id="g84">
</g>
<g
   id="g86">
</g>
<g
   id="g88">
</g>
<g
   id="g90">
</g>
<g
   id="g92">
</g>
<g
   id="g94">
</g>
<g
   id="g96">
</g>
<g
   id="g98">
</g>
</svg>