<?xml version="1.0" encoding="UTF-8" standalone="no"?>
<!-- Created with Inkscape (http://www.inkscape.org/) -->

<svg
   xmlns:dc="http://purl.org/dc/elements/1.1/"
   xmlns:cc="http://creativecommons.org/ns#"
   xmlns:rdf="http://www.w3.org/1999/02/22-rdf-syntax-ns#"
   xmlns:svg="http://www.w3.org/2000/svg"
   xmlns="http://www.w3.org/2000/svg"
   xmlns:sodipodi="http://sodipodi.sourceforge.net/DTD/sodipodi-0.dtd"
   xmlns:inkscape="http://www.inkscape.org/namespaces/inkscape"
   width="116.15"
   height="116.15"
   viewBox="0 0 30.731354 30.731355"
   version="1.1"
   id="svg8"
   inkscape:version="0.92.3 (2405546, 2018-03-11)"
   sodipodi:docname="logol.svg">
  <defs
     id="defs2">
    <inkscape:perspective
       sodipodi:type="inkscape:persp3d"
       inkscape:vp_x="0 : 22.489583 : 1"
       inkscape:vp_y="0 : 1000 : 0"
       inkscape:vp_z="145.52083 : 22.489583 : 1"
       inkscape:persp3d-origin="72.760415 : 14.993056 : 1"
       id="perspective189" />
  </defs>
  <sodipodi:namedview
     id="base"
     pagecolor="#ffffff"
     bordercolor="#666666"
     borderopacity="1.0"
     inkscape:pageopacity="0.0"
     inkscape:pageshadow="2"
     inkscape:zoom="7.6827164"
     inkscape:cx="58.107141"
     inkscape:cy="72.501756"
     inkscape:document-units="px"
     inkscape:current-layer="layer1"
     showgrid="false"
     units="px"
     inkscape:window-width="1920"
     inkscape:window-height="1058"
     inkscape:window-x="-8"
     inkscape:window-y="-8"
     inkscape:window-maximized="1" />
  <metadata
     id="metadata5">
    <rdf:RDF>
      <cc:Work
         rdf:about="">
        <dc:format>image/svg+xml</dc:format>
        <dc:type
           rdf:resource="http://purl.org/dc/dcmitype/StillImage" />
        <dc:title></dc:title>
      </cc:Work>
    </rdf:RDF>
  </metadata>
  <g
     inkscape:label="Layer 1"
     inkscape:groupmode="layer"
     id="layer1"
     transform="translate(0,-266.26864)">
    <path
       style="fill:#ff5555;stroke-width:0.26458332"
       d="M 30.682216,281.65227 A 15.308036,15.308036 0 0 1 15.37418,296.96031 15.308036,15.308036 0 0 1 0.06614583,281.65227 15.308036,15.308036 0 0 1 15.37418,266.34424 15.308036,15.308036 0 0 1 30.682216,281.65227 Z"
       id="path17"
       inkscape:connector-curvature="0" />
    <g
       aria-label="["
       transform="matrix(1.3012439,0,0,0.76849544,-0.72760313,13.756341)"
       style="font-style:normal;font-variant:normal;font-weight:normal;font-stretch:normal;font-size:13.77149677px;line-height:88;font-family:Jura;-inkscape-font-specification:Jura;letter-spacing:0px;word-spacing:0px;fill:#ffffff;fill-opacity:1;stroke:none;stroke-width:0.34428743"
       id="text25">
      <path
         d="m 11.438342,362.77909 q -0.514136,0 -0.835471,-0.2892 -0.289201,-0.2892 -0.289201,-0.83547 v -25.16053 q 0,-0.54627 0.289201,-0.83547 0.321335,-0.2892 0.835471,-0.2892 h 2.699214 q 0.449868,0 0.771203,0.35347 0.353469,0.32133 0.353469,0.7712 0,0.44987 -0.353469,0.80334 -0.321335,0.32134 -0.771203,0.32134 h -1.574542 v 22.91118 h 1.574542 q 0.449868,0 0.771203,0.32133 0.353469,0.35347 0.353469,0.80334 0,0.44987 -0.353469,0.7712 -0.321335,0.35347 -0.771203,0.35347 z"
         style="font-weight:bold;font-size:32.13349533px;fill:#ffffff;stroke-width:0.34428743"
         id="path133"
         inkscape:connector-curvature="0" />
    </g>
  </g>
  <g
     inkscape:groupmode="layer"
     id="layer2"
     inkscape:label="Layer 2"
     transform="translate(0,-48.643647)" />
</svg>
