<?xml version="1.0" encoding="UTF-8" standalone="no"?>
<!-- Created with Inkscape (http://www.inkscape.org/) -->

<svg
   xmlns:dc="http://purl.org/dc/elements/1.1/"
   xmlns:cc="http://creativecommons.org/ns#"
   xmlns:rdf="http://www.w3.org/1999/02/22-rdf-syntax-ns#"
   xmlns:svg="http://www.w3.org/2000/svg"
   xmlns="http://www.w3.org/2000/svg"
   xmlns:sodipodi="http://sodipodi.sourceforge.net/DTD/sodipodi-0.dtd"
   xmlns:inkscape="http://www.inkscape.org/namespaces/inkscape"
   width="550"
   height="170"
   viewBox="0 0 145.52083 44.979167"
   version="1.1"
   id="svg8"
   inkscape:version="0.92.3 (2405546, 2018-03-11)"
   sodipodi:docname="logo_snode_bright_full_final.svg">
  <defs
     id="defs2">
    <inkscape:perspective
       sodipodi:type="inkscape:persp3d"
       inkscape:vp_x="0 : 22.489583 : 1"
       inkscape:vp_y="0 : 1000 : 0"
       inkscape:vp_z="145.52083 : 22.489583 : 1"
       inkscape:persp3d-origin="72.760415 : 14.993056 : 1"
       id="perspective189" />
  </defs>
  <sodipodi:namedview
     id="base"
     pagecolor="#ffffff"
     bordercolor="#666666"
     borderopacity="1.0"
     inkscape:pageopacity="0.0"
     inkscape:pageshadow="2"
     inkscape:zoom="2.8"
     inkscape:cx="243.1245"
     inkscape:cy="107.55804"
     inkscape:document-units="px"
     inkscape:current-layer="layer2"
     showgrid="false"
     units="px"
     inkscape:window-width="1920"
     inkscape:window-height="1028"
     inkscape:window-x="1912"
     inkscape:window-y="-8"
     inkscape:window-maximized="1" />
  <metadata
     id="metadata5">
    <rdf:RDF>
      <cc:Work
         rdf:about="">
        <dc:format>image/svg+xml</dc:format>
        <dc:type
           rdf:resource="http://purl.org/dc/dcmitype/StillImage" />
        <dc:title></dc:title>
      </cc:Work>
    </rdf:RDF>
  </metadata>
  <g
     inkscape:label="Layer 1"
     inkscape:groupmode="layer"
     id="layer1"
     transform="translate(0,-252.02082)">
    <path
       style="fill:#ff5555;stroke-width:0.26458332"
       d="M 32.468154,267.89584 A 15.308036,15.308036 0 0 1 17.160118,283.20388 15.308036,15.308036 0 0 1 1.8520823,267.89584 15.308036,15.308036 0 0 1 17.160118,252.58781 15.308036,15.308036 0 0 1 32.468154,267.89584 Z"
       id="path17" />
    <g
       aria-label="["
       transform="scale(1.3012439,0.76849544)"
       style="font-style:normal;font-variant:normal;font-weight:normal;font-stretch:normal;font-size:13.77149677px;line-height:88;font-family:Jura;-inkscape-font-specification:Jura;letter-spacing:0px;word-spacing:0px;fill:#ffffff;fill-opacity:1;stroke:none;stroke-width:0.34428743"
       id="text25">
      <path
         d="m 11.438342,362.77909 q -0.514136,0 -0.835471,-0.2892 -0.289201,-0.2892 -0.289201,-0.83547 v -25.16053 q 0,-0.54627 0.289201,-0.83547 0.321335,-0.2892 0.835471,-0.2892 h 2.699214 q 0.449868,0 0.771203,0.35347 0.353469,0.32133 0.353469,0.7712 0,0.44987 -0.353469,0.80334 -0.321335,0.32134 -0.771203,0.32134 h -1.574542 v 22.91118 h 1.574542 q 0.449868,0 0.771203,0.32133 0.353469,0.35347 0.353469,0.80334 0,0.44987 -0.353469,0.7712 -0.321335,0.35347 -0.771203,0.35347 z"
         style="font-weight:bold;font-size:32.13349533px;fill:#ffffff;stroke-width:0.34428743"
         id="path133" />
    </g>
    <g
       aria-label="SMART SOLUTIONS"
       style="font-style:normal;font-variant:normal;font-weight:normal;font-stretch:normal;font-size:10.58333302px;line-height:88;font-family:Jura;-inkscape-font-specification:Jura;letter-spacing:0px;word-spacing:0px;fill:#ff5555;fill-opacity:1;stroke:none;stroke-width:0.26458332"
       id="text92">
      <path
         d="m 39.602136,291.11159 q -0.753533,0 -1.1176,-0.3302 -0.364067,-0.33867 -0.389467,-1.0668 -0.0085,-0.1016 0.0508,-0.16087 0.06773,-0.0677 0.169334,-0.0677 0.09313,0 0.1524,0.0593 0.05927,0.0593 0.06773,0.16086 0.01693,0.54187 0.254,0.75354 0.237067,0.21166 0.8128,0.21166 h 1.2192 q 0.6096,0 0.8382,-0.2286 0.237066,-0.23706 0.237066,-0.8382 0,-0.60113 -0.237066,-0.82973 -0.237067,-0.23707 -0.8382,-0.23707 h -1.159933 q -0.745067,0 -1.0922,-0.34713 -0.347134,-0.34713 -0.347134,-1.0922 0,-0.7366 0.347134,-1.08373 0.347133,-0.34714 1.083733,-0.34714 h 1.1938 q 0.7112,0 1.049866,0.32174 0.347134,0.32173 0.372534,0.99906 0.0085,0.1016 -0.05927,0.16087 -0.05927,0.0593 -0.160867,0.0593 -0.09313,0 -0.1524,-0.0593 -0.05927,-0.0593 -0.06773,-0.1524 -0.0085,-0.49107 -0.237066,-0.6858 -0.220134,-0.2032 -0.745067,-0.2032 h -1.1938 q -0.550333,0 -0.770467,0.22013 -0.220133,0.22014 -0.220133,0.77047 0,0.5588 0.220133,0.77893 0.220134,0.22014 0.778934,0.22014 h 1.159933 q 0.7874,0 1.151466,0.36406 0.364067,0.36407 0.364067,1.143 0,0.77894 -0.364067,1.143 -0.364066,0.36407 -1.151466,0.36407 z"
         style="font-size:8.46666622px;fill:#ff5555;stroke-width:0.26458332"
         id="path139" />
      <path
         d="m 48.654325,285.66752 q 0.194733,0 0.194733,0.22014 v 5.01226 q 0,0.22014 -0.220133,0.22014 -0.220133,0 -0.220133,-0.22014 v -4.318 l -1.8288,2.77707 q -0.08467,0.14393 -0.262467,0.14393 -0.1524,0 -0.245533,-0.14393 l -1.837267,-2.80247 v 4.3434 q 0,0.22014 -0.220133,0.22014 -0.220133,0 -0.220133,-0.22014 v -5.01226 q 0,-0.22014 0.220133,-0.22014 0.169333,0 0.254,0.14394 l 2.065866,3.15806 2.0574,-3.15806 q 0.08467,-0.14394 0.262467,-0.14394 z"
         style="font-size:8.46666622px;fill:#ff5555;stroke-width:0.26458332"
         id="path141" />
      <path
         d="m 54.591178,290.80679 q 0.0254,0.0593 0.0254,0.11007 0,0.11006 -0.143934,0.1778 -0.0508,0.0254 -0.110066,0.0254 -0.118534,0 -0.169334,-0.13547 l -0.567266,-1.33773 h -0.0254 -2.7432 l -0.567267,1.33773 q -0.05927,0.13547 -0.186266,0.13547 -0.04233,0 -0.110067,-0.0254 -0.135467,-0.0508 -0.135467,-0.18627 0,-0.0677 0.01693,-0.1016 l 2.099733,-4.96993 q 0.06773,-0.16934 0.254,-0.16934 h 0.01693 q 0.169333,0 0.245533,0.16934 z m -3.556,-1.6002 h 2.404533 l -1.202267,-2.8448 z"
         style="font-size:8.46666622px;fill:#ff5555;stroke-width:0.26458332"
         id="path143" />
      <path
         d="m 59.385692,290.83219 q 0.04233,0.0677 0.04233,0.127 0,0.1016 -0.118533,0.16933 -0.06773,0.0423 -0.127,0.0423 -0.110067,0 -0.169333,-0.11007 l -1.397,-2.2098 h -1.557867 v 2.04893 q 0,0.22014 -0.220133,0.22014 -0.220134,0 -0.220134,-0.22014 v -5.01226 q 0,-0.22014 0.220134,-0.22014 h 1.9812 q 0.719666,0 1.0922,0.37254 0.372533,0.37253 0.372533,1.0922 v 0.254 q 0,0.64346 -0.296333,1.00753 -0.287867,0.36407 -0.855134,0.44027 z m -3.3274,-2.42147 h 1.761067 q 0.541866,0 0.778933,-0.23706 0.245533,-0.24554 0.245533,-0.7874 v -0.254 q 0,-0.5334 -0.245533,-0.77894 -0.237067,-0.24553 -0.778933,-0.24553 h -1.761067 z"
         style="font-size:8.46666622px;fill:#ff5555;stroke-width:0.26458332"
         id="path145" />
      <path
         d="m 62.071874,291.12852 q -0.09313,0 -0.160866,-0.0593 -0.05927,-0.0677 -0.05927,-0.16087 v -4.8006 h -1.8034 q -0.09313,0 -0.160866,-0.0593 -0.05927,-0.0677 -0.05927,-0.16086 0,-0.1016 0.05927,-0.16087 0.06773,-0.0593 0.160866,-0.0593 h 4.047067 q 0.1016,0 0.160866,0.0593 0.05927,0.0593 0.05927,0.16087 0,0.0931 -0.05927,0.16086 -0.05927,0.0593 -0.160866,0.0593 h -1.8034 v 4.8006 q 0,0.0931 -0.05927,0.16087 -0.05927,0.0593 -0.160867,0.0593 z"
         style="font-size:8.46666622px;fill:#ff5555;stroke-width:0.26458332"
         id="path147" />
      <path
         d="m 68.772447,291.11159 q -0.753533,0 -1.1176,-0.3302 -0.364067,-0.33867 -0.389467,-1.0668 -0.0085,-0.1016 0.0508,-0.16087 0.06773,-0.0677 0.169334,-0.0677 0.09313,0 0.1524,0.0593 0.05927,0.0593 0.06773,0.16086 0.01693,0.54187 0.254,0.75354 0.237067,0.21166 0.8128,0.21166 h 1.2192 q 0.6096,0 0.8382,-0.2286 0.237066,-0.23706 0.237066,-0.8382 0,-0.60113 -0.237066,-0.82973 -0.237067,-0.23707 -0.8382,-0.23707 h -1.159933 q -0.745067,0 -1.0922,-0.34713 -0.347134,-0.34713 -0.347134,-1.0922 0,-0.7366 0.347134,-1.08373 0.347133,-0.34714 1.083733,-0.34714 h 1.1938 q 0.7112,0 1.049866,0.32174 0.347134,0.32173 0.372534,0.99906 0.0085,0.1016 -0.05927,0.16087 -0.05927,0.0593 -0.160867,0.0593 -0.09313,0 -0.1524,-0.0593 -0.05927,-0.0593 -0.06773,-0.1524 -0.0085,-0.49107 -0.237067,-0.6858 -0.220133,-0.2032 -0.745066,-0.2032 h -1.1938 q -0.550333,0 -0.770467,0.22013 -0.220133,0.22014 -0.220133,0.77047 0,0.5588 0.220133,0.77893 0.220134,0.22014 0.778934,0.22014 h 1.159933 q 0.7874,0 1.151466,0.36406 0.364067,0.36407 0.364067,1.143 0,0.77894 -0.364067,1.143 -0.364066,0.36407 -1.151466,0.36407 z"
         style="font-size:8.46666622px;fill:#ff5555;stroke-width:0.26458332"
         id="path149" />
      <path
         d="m 74.615768,291.12006 q -0.922867,0 -1.3462,-0.41487 -0.414867,-0.42333 -0.414867,-1.3462 v -1.9304 q 0,-0.92287 0.423334,-1.3462 0.423333,-0.42333 1.329266,-0.41487 h 1.024467 q 0.922867,0 1.337733,0.42334 0.423334,0.42333 0.423334,1.33773 v 1.9304 q 0,0.92287 -0.423334,1.3462 -0.414866,0.41487 -1.337733,0.41487 z m 1.016,-0.44027 q 0.728133,0 1.024467,-0.29633 0.296333,-0.29634 0.296333,-1.02447 v -1.9304 q 0,-0.72813 -0.296333,-1.02447 -0.296334,-0.29633 -1.024467,-0.29633 h -1.024467 q -0.491066,-0.008 -0.778933,0.11853 -0.2794,0.127 -0.4064,0.41487 -0.127,0.28787 -0.127,0.7874 v 1.9304 q 0,0.72813 0.296333,1.02447 0.296334,0.29633 1.024467,0.29633 z"
         style="font-size:8.46666622px;fill:#ff5555;stroke-width:0.26458332"
         id="path151" />
      <path
         d="m 79.07188,291.12006 q -0.220134,0 -0.220134,-0.22014 v -5.01226 q 0,-0.22014 0.220134,-0.22014 0.220133,0 0.220133,0.22014 v 4.79213 h 2.582333 q 0.220133,0 0.220133,0.22013 0,0.22014 -0.220133,0.22014 z"
         style="font-size:8.46666622px;fill:#ff5555;stroke-width:0.26458332"
         id="path153" />
      <path
         d="m 84.744943,291.12006 q -0.9144,0 -1.337733,-0.41487 -0.423334,-0.42333 -0.423334,-1.3462 v -3.47133 q 0,-0.0931 0.05927,-0.1524 0.06773,-0.0677 0.160867,-0.0677 0.1016,0 0.160866,0.0677 0.05927,0.0593 0.05927,0.1524 v 3.47133 q 0,0.72813 0.296333,1.02447 0.296334,0.29633 1.024467,0.29633 h 1.016 q 0.499533,0 0.778933,-0.127 0.287867,-0.127 0.414867,-0.41487 0.127,-0.28786 0.127,-0.77893 v -3.47133 q 0,-0.0931 0.05927,-0.1524 0.06773,-0.0677 0.160866,-0.0677 0.1016,0 0.160867,0.0677 0.05927,0.0593 0.05927,0.1524 v 3.47133 q 0,0.92287 -0.423334,1.3462 -0.414866,0.41487 -1.337733,0.41487 z"
         style="font-size:8.46666622px;fill:#ff5555;stroke-width:0.26458332"
         id="path155" />
      <path
         d="m 90.613798,291.12852 q -0.09313,0 -0.160867,-0.0593 -0.05927,-0.0677 -0.05927,-0.16087 v -4.8006 h -1.8034 q -0.09313,0 -0.160867,-0.0593 -0.05927,-0.0677 -0.05927,-0.16086 0,-0.1016 0.05927,-0.16087 0.06773,-0.0593 0.160867,-0.0593 h 4.047066 q 0.1016,0 0.160867,0.0593 0.05927,0.0593 0.05927,0.16087 0,0.0931 -0.05927,0.16086 -0.05927,0.0593 -0.160867,0.0593 h -1.8034 v 4.8006 q 0,0.0931 -0.05927,0.16087 -0.05927,0.0593 -0.160867,0.0593 z"
         style="font-size:8.46666622px;fill:#ff5555;stroke-width:0.26458332"
         id="path157" />
      <path
         d="m 94.020839,291.12006 q -0.1016,0 -0.160867,-0.0593 -0.05927,-0.0593 -0.05927,-0.16087 v -5.01226 q 0,-0.1016 0.05927,-0.16087 0.05927,-0.0593 0.160867,-0.0593 0.1016,0 0.160867,0.0593 0.05927,0.0593 0.05927,0.16087 v 5.01226 q 0,0.1016 -0.05927,0.16087 -0.05927,0.0593 -0.160867,0.0593 z"
         style="font-size:8.46666622px;fill:#ff5555;stroke-width:0.26458332"
         id="path159" />
      <path
         d="m 97.469154,291.12006 q -0.922867,0 -1.3462,-0.41487 -0.414867,-0.42333 -0.414867,-1.3462 v -1.9304 q 0,-0.92287 0.423334,-1.3462 0.423333,-0.42333 1.329266,-0.41487 h 1.024467 q 0.922867,0 1.337733,0.42334 0.423333,0.42333 0.423333,1.33773 v 1.9304 q 0,0.92287 -0.423333,1.3462 -0.414866,0.41487 -1.337733,0.41487 z m 1.016,-0.44027 q 0.728133,0 1.024467,-0.29633 0.296333,-0.29634 0.296333,-1.02447 v -1.9304 q 0,-0.72813 -0.296333,-1.02447 -0.296334,-0.29633 -1.024467,-0.29633 h -1.024467 q -0.491066,-0.008 -0.778933,0.11853 -0.2794,0.127 -0.4064,0.41487 -0.127,0.28787 -0.127,0.7874 v 1.9304 q 0,0.72813 0.296333,1.02447 0.296334,0.29633 1.024467,0.29633 z"
         style="font-size:8.46666622px;fill:#ff5555;stroke-width:0.26458332"
         id="path161" />
      <path
         d="m 105.86227,285.66752 q 0.22013,0 0.22013,0.22014 v 5.01226 q 0,0.22014 -0.22013,0.22014 -0.11854,0 -0.22014,-0.127 l -3.49673,-4.4958 v 4.40266 q 0,0.22014 -0.22013,0.22014 -0.22014,0 -0.22014,-0.22014 v -5.01226 q 0,-0.22014 0.22014,-0.22014 0.127,0 0.2286,0.127 l 3.48826,4.48734 v -4.3942 q 0,-0.22014 0.22014,-0.22014 z"
         style="font-size:8.46666622px;fill:#ff5555;stroke-width:0.26458332"
         id="path163" />
      <path
         d="m 109.05525,291.11159 q -0.75353,0 -1.1176,-0.3302 -0.36406,-0.33867 -0.38946,-1.0668 -0.008,-0.1016 0.0508,-0.16087 0.0677,-0.0677 0.16933,-0.0677 0.0931,0 0.1524,0.0593 0.0593,0.0593 0.0677,0.16086 0.0169,0.54187 0.254,0.75354 0.23707,0.21166 0.8128,0.21166 h 1.2192 q 0.6096,0 0.8382,-0.2286 0.23707,-0.23706 0.23707,-0.8382 0,-0.60113 -0.23707,-0.82973 -0.23706,-0.23707 -0.8382,-0.23707 h -1.15993 q -0.74507,0 -1.0922,-0.34713 -0.34713,-0.34713 -0.34713,-1.0922 0,-0.7366 0.34713,-1.08373 0.34713,-0.34714 1.08373,-0.34714 h 1.1938 q 0.7112,0 1.04987,0.32174 0.34713,0.32173 0.37253,0.99906 0.008,0.1016 -0.0593,0.16087 -0.0593,0.0593 -0.16087,0.0593 -0.0931,0 -0.1524,-0.0593 -0.0593,-0.0593 -0.0677,-0.1524 -0.008,-0.49107 -0.23707,-0.6858 -0.22013,-0.2032 -0.74507,-0.2032 h -1.1938 q -0.55033,0 -0.77046,0.22013 -0.22014,0.22014 -0.22014,0.77047 0,0.5588 0.22014,0.77893 0.22013,0.22014 0.77893,0.22014 h 1.15993 q 0.7874,0 1.15147,0.36406 0.36407,0.36407 0.36407,1.143 0,0.77894 -0.36407,1.143 -0.36407,0.36407 -1.15147,0.36407 z"
         style="font-size:8.46666622px;fill:#ff5555;stroke-width:0.26458332"
         id="path165" />
    </g>
  </g>
  <g
     inkscape:groupmode="layer"
     id="layer2"
     inkscape:label="Layer 2"
     transform="translate(0,-34.395834)">
    <path
       inkscape:connector-curvature="0"
       id="path124"
       style="font-style:normal;font-variant:normal;font-weight:bold;font-stretch:normal;font-size:35.27777863px;line-height:88;font-family:Jura;-inkscape-font-specification:Jura;letter-spacing:0px;word-spacing:0px;fill:#ffffff;fill-opacity:1;stroke:none;stroke-width:0.26458332"
       d="m 29.247798,62.744034 q -3.033889,0 -4.727222,-1.199445 -1.658056,-1.234722 -2.081389,-3.774722 -0.07056,-0.740833 0.3175,-1.128889 0.388055,-0.423333 1.128889,-0.423333 0.705555,0 1.058333,0.352778 0.352778,0.3175 0.493889,1.093611 0.246944,1.199444 1.093611,1.658055 0.881944,0.458611 2.716389,0.458611 h 5.08 q 1.552222,0 2.363611,-0.352777 0.846667,-0.352778 1.199445,-1.164167 0.352777,-0.846667 0.352777,-2.363611 0,-2.257778 -0.846666,-3.104445 -0.846667,-0.846666 -3.069167,-0.846666 h -4.374445 q -3.316111,0 -4.938889,-1.622778 -1.622777,-1.622778 -1.622777,-4.974167 0,-3.316111 1.5875,-4.903611 1.622778,-1.622778 4.938889,-1.622778 h 4.198055 q 5.573889,0 6.420556,4.656667 0.105833,0.740833 -0.282222,1.164166 -0.388056,0.388056 -1.164167,0.388056 -0.705555,0 -1.058333,-0.352778 Q 37.679187,44.329033 37.573354,43.5882 37.291131,42.565144 36.51502,42.177089 35.738909,41.789033 34.116131,41.789033 h -4.198055 q -1.446389,0 -2.2225,0.3175 -0.740834,0.3175 -1.058334,1.093611 -0.282222,0.740834 -0.282222,2.151945 0,1.446389 0.3175,2.2225 0.3175,0.740833 1.058333,1.093611 0.776112,0.3175 2.2225,0.3175 h 4.374445 q 3.4925,0 5.185833,1.693334 1.693334,1.693333 1.693334,5.221111 0,3.4925 -1.693334,5.185833 -1.693333,1.658056 -5.185833,1.658056 z" />
    <path
       inkscape:connector-curvature="0"
       id="path126"
       style="font-style:normal;font-variant:normal;font-weight:normal;font-stretch:normal;font-size:35.27777863px;line-height:88;font-family:Jura;-inkscape-font-specification:Jura;letter-spacing:0px;word-spacing:0px;fill:#ffffff;fill-opacity:1;stroke:none;stroke-width:0.26458332"
       d="m 64.610464,40.025144 q 0.917223,0 0.917223,0.917223 v 20.884445 q 0,0.917222 -0.917223,0.917222 -0.493889,0 -0.917222,-0.529167 L 49.12352,43.482367 v 18.344445 q 0,0.917222 -0.917223,0.917222 -0.917222,0 -0.917222,-0.917222 V 40.942367 q 0,-0.917223 0.917222,-0.917223 0.529167,0 0.9525,0.529167 L 63.693242,59.251534 V 40.942367 q 0,-0.917223 0.917222,-0.917223 z" />
    <path
       style="font-style:normal;font-variant:normal;font-weight:normal;font-stretch:normal;font-size:35.27777863px;line-height:88;font-family:Jura;-inkscape-font-specification:Jura;letter-spacing:0px;word-spacing:0px;fill:#ffffff;fill-opacity:1;stroke:none;stroke-width:0.99999994"
       d="M 298.34766 21.275391 C 288.83654 21.186496 281.85851 23.364149 277.41406 27.808594 C 272.96962 32.253039 270.74609 39.320875 270.74609 49.009766 L 270.74609 79.410156 C 270.74609 89.099043 272.92569 96.164923 277.28125 100.60938 C 281.72569 104.96493 288.79158 107.14258 298.48047 107.14258 L 298.52539 107.14258 L 298.52539 100.20898 L 298.48047 100.20898 C 290.83602 100.20898 285.45877 98.654079 282.34766 95.542969 C 279.23655 92.431858 277.67969 87.054599 277.67969 79.410156 L 277.67969 49.009766 C 277.67969 43.76532 278.34635 39.631599 279.67969 36.609375 C 281.01302 33.587151 283.14674 31.409502 286.08008 30.076172 C 289.1023 28.74283 293.1921 28.12009 298.34766 28.208984 L 298.52539 28.208984 L 298.52539 21.275391 L 298.34766 21.275391 z M 313.39258 21.275391 L 313.39258 28.208984 L 314.48047 28.208984 C 322.12491 28.208984 327.50217 29.765843 330.61328 32.876953 C 333.72439 35.988064 335.28125 41.36532 335.28125 49.009766 L 335.28125 79.410156 C 335.28125 87.054599 333.72439 92.431858 330.61328 95.542969 C 327.50217 98.654079 322.12491 100.20898 314.48047 100.20898 L 313.39258 100.20898 L 313.39258 107.14258 L 314.48047 107.14258 C 324.16936 107.14258 331.19131 104.96493 335.54688 100.60938 C 339.99132 96.164923 342.21289 89.099043 342.21289 79.410156 L 342.21289 49.009766 C 342.21289 39.409766 339.99132 32.387804 335.54688 27.943359 C 331.19131 23.498915 324.16936 21.275391 314.48047 21.275391 L 313.39258 21.275391 z "
       transform="matrix(0.26458333,0,0,0.26458333,0,34.395834)"
       id="path128" />
    <path
       style="font-style:normal;font-variant:normal;font-weight:normal;font-stretch:normal;font-size:35.27777863px;line-height:88;font-family:Jura;-inkscape-font-specification:Jura;letter-spacing:0px;word-spacing:0px;fill:#ffffff;fill-opacity:1;stroke:none;stroke-width:0.99999994"
       d="M 368.65625 21.275391 C 366.34514 21.275391 365.18945 22.431074 365.18945 24.742188 L 365.18945 40.574219 L 372.12109 40.574219 L 372.12109 28.208984 L 400.78906 28.208984 C 406.9224 28.208984 411.76671 29.009375 415.32227 30.609375 C 418.96671 32.209375 421.58945 34.832118 423.18945 38.476562 C 424.78945 42.032118 425.58789 46.876431 425.58789 53.009766 L 425.58789 75.410156 C 425.58789 81.543488 424.78945 86.431727 423.18945 90.076172 C 421.58945 93.631727 418.96671 96.208594 415.32227 97.808594 C 411.76671 99.408594 406.9224 100.20898 400.78906 100.20898 L 372.12109 100.20898 L 372.12109 86.789062 L 365.18945 86.789062 L 365.18945 103.67578 C 365.18945 105.98689 366.34514 107.14258 368.65625 107.14258 L 400.78906 107.14258 C 411.90017 107.14258 419.94409 104.60964 424.92188 99.542969 C 429.98853 94.476303 432.52148 86.432377 432.52148 75.410156 L 432.52148 53.009766 C 432.52148 41.987542 429.98853 33.943619 424.92188 28.876953 C 419.85519 23.810285 411.81127 21.275391 400.78906 21.275391 L 368.65625 21.275391 z "
       transform="matrix(0.26458333,0,0,0.26458333,0,34.395834)"
       id="path130" />
    <path
       style="fill:#ffffff;stroke-width:0.32406992"
       d="m 121.12703,40.009106 h 21.85438 c 0.51886,0 0.93656,0.426139 0.93656,0.95547 v 0.548279 c 0,0.52933 -0.4177,0.95547 -0.93656,0.95547 h -21.85438 c -0.51886,0 -0.93656,-0.42614 -0.93656,-0.95547 v -0.548279 c 0,-0.529331 0.4177,-0.95547 0.93656,-0.95547 z"
       id="rect27" />
    <path
       style="fill:#ffffff;stroke-width:0.32406992"
       d="m 121.12703,60.273392 h 21.85438 c 0.51886,0 0.93656,0.426139 0.93656,0.95547 v 0.548279 c 0,0.529331 -0.4177,0.95547 -0.93656,0.95547 h -21.85438 c -0.51886,0 -0.93656,-0.426139 -0.93656,-0.95547 v -0.548279 c 0,-0.529331 0.4177,-0.95547 0.93656,-0.95547 z"
       id="rect27-7" />
    <path
       style="fill:#d40000;stroke-width:0.28315875"
       d="m 120.90549,50.40583 h 16.6848 c 0.39612,0 0.71502,0.42614 0.71502,0.955471 v 0.548279 c 0,0.529331 -0.3189,0.95547 -0.71502,0.95547 h -16.6848 c -0.39612,0 -0.71502,-0.426139 -0.71502,-0.95547 v -0.548279 c 0,-0.529331 0.3189,-0.955471 0.71502,-0.955471 z"
       id="rect27-7-1" />
    <path
       style="fill:#ff5555;stroke-width:0.11485144"
       d="m 17.955025,70.411278 h 17.653658 c 0.127748,0 0.230592,0.07011 0.230592,0.157192 v 0.0902 c 0,0.08709 -0.102844,0.157192 -0.230592,0.157192 H 17.955025 c -0.127749,0 -0.230593,-0.07011 -0.230593,-0.157192 v -0.0902 c 0,-0.08709 0.102844,-0.157192 0.230593,-0.157192 z"
       id="rect27-7-1-1" />
    <path
       style="fill:#ff5555;stroke-width:0.11485144"
       d="m 114.75466,70.479614 h 17.65366 c 0.12775,0 0.23059,0.07011 0.23059,0.157192 v 0.0902 c 0,0.08708 -0.10284,0.157192 -0.23059,0.157192 h -17.65366 c -0.12774,0 -0.23059,-0.07011 -0.23059,-0.157192 v -0.0902 c 0,-0.08708 0.10285,-0.157192 0.23059,-0.157192 z"
       id="rect27-7-1-1-0" />
  </g>
</svg>
