<?xml version="1.0" encoding="UTF-8" standalone="no"?>
<!-- Created with Inkscape (http://www.inkscape.org/) -->

<svg
   xmlns:dc="http://purl.org/dc/elements/1.1/"
   xmlns:cc="http://creativecommons.org/ns#"
   xmlns:rdf="http://www.w3.org/1999/02/22-rdf-syntax-ns#"
   xmlns:svg="http://www.w3.org/2000/svg"
   xmlns="http://www.w3.org/2000/svg"
   xmlns:sodipodi="http://sodipodi.sourceforge.net/DTD/sodipodi-0.dtd"
   xmlns:inkscape="http://www.inkscape.org/namespaces/inkscape"
   width="550"
   height="120"
   viewBox="0 0 145.52083 31.75"
   version="1.1"
   id="svg8"
   inkscape:version="0.92.3 (2405546, 2018-03-11)"
   sodipodi:docname="logo_snode_bright_easy_final.svg">
  <defs
     id="defs2">
    <inkscape:perspective
       sodipodi:type="inkscape:persp3d"
       inkscape:vp_x="0 : 22.489583 : 1"
       inkscape:vp_y="0 : 1000 : 0"
       inkscape:vp_z="145.52083 : 22.489583 : 1"
       inkscape:persp3d-origin="72.760415 : 14.993056 : 1"
       id="perspective189" />
  </defs>
  <sodipodi:namedview
     id="base"
     pagecolor="#ffffff"
     bordercolor="#666666"
     borderopacity="1.0"
     inkscape:pageopacity="0.0"
     inkscape:pageshadow="2"
     inkscape:zoom="1.979899"
     inkscape:cx="218.9473"
     inkscape:cy="24.073291"
     inkscape:document-units="px"
     inkscape:current-layer="layer2"
     showgrid="false"
     units="px"
     inkscape:window-width="1920"
     inkscape:window-height="1028"
     inkscape:window-x="1912"
     inkscape:window-y="-8"
     inkscape:window-maximized="1" />
  <metadata
     id="metadata5">
    <rdf:RDF>
      <cc:Work
         rdf:about="">
        <dc:format>image/svg+xml</dc:format>
        <dc:type
           rdf:resource="http://purl.org/dc/dcmitype/StillImage" />
        <dc:title></dc:title>
      </cc:Work>
    </rdf:RDF>
  </metadata>
  <g
     inkscape:label="Layer 1"
     inkscape:groupmode="layer"
     id="layer1"
     transform="translate(0,-265.24999)">
    <path
       style="fill:#ff5555;stroke-width:0.26458332"
       d="M 32.468154,281.12509 A 15.308036,15.308036 0 0 1 17.160118,296.43313 15.308036,15.308036 0 0 1 1.8520823,281.12509 15.308036,15.308036 0 0 1 17.160118,265.81706 15.308036,15.308036 0 0 1 32.468154,281.12509 Z"
       id="path17"
       inkscape:connector-curvature="0" />
    <g
       aria-label="["
       transform="matrix(1.3012439,0,0,0.76849544,0,13.229169)"
       style="font-style:normal;font-variant:normal;font-weight:normal;font-stretch:normal;font-size:13.77149677px;line-height:88;font-family:Jura;-inkscape-font-specification:Jura;letter-spacing:0px;word-spacing:0px;fill:#ffffff;fill-opacity:1;stroke:none;stroke-width:0.34428743"
       id="text25">
      <path
         d="m 11.438342,362.77909 q -0.514136,0 -0.835471,-0.2892 -0.289201,-0.2892 -0.289201,-0.83547 v -25.16053 q 0,-0.54627 0.289201,-0.83547 0.321335,-0.2892 0.835471,-0.2892 h 2.699214 q 0.449868,0 0.771203,0.35347 0.353469,0.32133 0.353469,0.7712 0,0.44987 -0.353469,0.80334 -0.321335,0.32134 -0.771203,0.32134 h -1.574542 v 22.91118 h 1.574542 q 0.449868,0 0.771203,0.32133 0.353469,0.35347 0.353469,0.80334 0,0.44987 -0.353469,0.7712 -0.321335,0.35347 -0.771203,0.35347 z"
         style="font-weight:bold;font-size:32.13349533px;fill:#ffffff;stroke-width:0.34428743"
         id="path133"
         inkscape:connector-curvature="0" />
    </g>
  </g>
  <g
     inkscape:groupmode="layer"
     id="layer2"
     inkscape:label="Layer 2"
     transform="translate(0,-47.625001)">
    <path
       inkscape:connector-curvature="0"
       id="path124"
       style="font-style:normal;font-variant:normal;font-weight:bold;font-stretch:normal;font-size:35.27777863px;line-height:88;font-family:Jura;-inkscape-font-specification:Jura;letter-spacing:0px;word-spacing:0px;fill:#ffffff;fill-opacity:1;stroke:none;stroke-width:0.26458332"
       d="m 29.247798,75.973209 q -3.033889,0 -4.727222,-1.199445 -1.658056,-1.234722 -2.081389,-3.774722 -0.07056,-0.740833 0.3175,-1.128889 0.388055,-0.423333 1.128889,-0.423333 0.705555,0 1.058333,0.352778 0.352778,0.3175 0.493889,1.093611 0.246944,1.199444 1.093611,1.658055 0.881944,0.458611 2.716389,0.458611 h 5.08 q 1.552222,0 2.363611,-0.352777 0.846667,-0.352778 1.199445,-1.164167 0.352777,-0.846667 0.352777,-2.363611 0,-2.257778 -0.846666,-3.104445 -0.846667,-0.846666 -3.069167,-0.846666 h -4.374445 q -3.316111,0 -4.938889,-1.622778 -1.622777,-1.622778 -1.622777,-4.974167 0,-3.316111 1.5875,-4.903611 1.622778,-1.622778 4.938889,-1.622778 h 4.198055 q 5.573889,0 6.420556,4.656667 0.105833,0.740833 -0.282222,1.164166 -0.388056,0.388056 -1.164167,0.388056 -0.705555,0 -1.058333,-0.352778 -0.352778,-0.352778 -0.458611,-1.093611 -0.282223,-1.023056 -1.058334,-1.411111 -0.776111,-0.388056 -2.398889,-0.388056 h -4.198055 q -1.446389,0 -2.2225,0.3175 -0.740834,0.3175 -1.058334,1.093611 -0.282222,0.740834 -0.282222,2.151945 0,1.446389 0.3175,2.2225 0.3175,0.740833 1.058333,1.093611 0.776112,0.3175 2.2225,0.3175 h 4.374445 q 3.4925,0 5.185833,1.693334 1.693334,1.693333 1.693334,5.221111 0,3.4925 -1.693334,5.185833 -1.693333,1.658056 -5.185833,1.658056 z" />
    <path
       inkscape:connector-curvature="0"
       id="path126"
       style="font-style:normal;font-variant:normal;font-weight:normal;font-stretch:normal;font-size:35.27777863px;line-height:88;font-family:Jura;-inkscape-font-specification:Jura;letter-spacing:0px;word-spacing:0px;fill:#ffffff;fill-opacity:1;stroke:none;stroke-width:0.26458332"
       d="m 64.610464,53.254319 q 0.917223,0 0.917223,0.917223 v 20.884445 q 0,0.917222 -0.917223,0.917222 -0.493889,0 -0.917222,-0.529167 L 49.12352,56.711542 v 18.344445 q 0,0.917222 -0.917223,0.917222 -0.917222,0 -0.917222,-0.917222 V 54.171542 q 0,-0.917223 0.917222,-0.917223 0.529167,0 0.9525,0.529167 L 63.693242,72.480709 V 54.171542 q 0,-0.917223 0.917222,-0.917223 z" />
    <path
       style="font-style:normal;font-variant:normal;font-weight:normal;font-stretch:normal;font-size:35.27777863px;line-height:88;font-family:Jura;-inkscape-font-specification:Jura;letter-spacing:0px;word-spacing:0px;fill:#ffffff;fill-opacity:1;stroke:none;stroke-width:0.99999994"
       d="M 298.34766 21.275391 C 288.83654 21.186496 281.85851 23.364149 277.41406 27.808594 C 272.96962 32.253039 270.74609 39.320875 270.74609 49.009766 L 270.74609 79.410156 C 270.74609 89.099043 272.92569 96.164923 277.28125 100.60938 C 281.72569 104.96493 288.79158 107.14258 298.48047 107.14258 L 299.99023 107.14258 L 299.99023 100.20898 L 298.48047 100.20898 C 290.83602 100.20898 285.45877 98.654079 282.34766 95.542969 C 279.23655 92.431858 277.67969 87.054599 277.67969 79.410156 L 277.67969 49.009766 C 277.67969 43.76532 278.34635 39.631599 279.67969 36.609375 C 281.01302 33.587151 283.14674 31.409502 286.08008 30.076172 C 289.1023 28.74283 293.1921 28.12009 298.34766 28.208984 L 299.99023 28.208984 L 299.99023 21.275391 L 298.34766 21.275391 z M 313.02734 21.275391 L 313.02734 28.208984 L 314.48047 28.208984 C 322.12491 28.208984 327.50217 29.765843 330.61328 32.876953 C 333.72439 35.988064 335.28125 41.36532 335.28125 49.009766 L 335.28125 79.410156 C 335.28125 87.054599 333.72439 92.431858 330.61328 95.542969 C 327.50217 98.654079 322.12491 100.20898 314.48047 100.20898 L 313.02734 100.20898 L 313.02734 107.14258 L 314.48047 107.14258 C 324.16936 107.14258 331.19131 104.96493 335.54688 100.60938 C 339.99132 96.164923 342.21289 89.099043 342.21289 79.410156 L 342.21289 49.009766 C 342.21289 39.409766 339.99132 32.387804 335.54688 27.943359 C 331.19131 23.498915 324.16936 21.275391 314.48047 21.275391 L 313.02734 21.275391 z "
       transform="matrix(0.26458333,0,0,0.26458333,0,47.625001)"
       id="path128" />
    <path
       style="font-style:normal;font-variant:normal;font-weight:normal;font-stretch:normal;font-size:35.27777863px;line-height:88;font-family:Jura;-inkscape-font-specification:Jura;letter-spacing:0px;word-spacing:0px;fill:#ffffff;fill-opacity:1;stroke:none;stroke-width:0.26458332"
       d="m 97.540298,53.254122 c -0.611481,0 -0.917257,0.305775 -0.917257,0.917257 v 4.188892 h 1.833996 v -3.271635 h 7.585063 c 1.62278,0 2.90451,0.21177 3.84525,0.635103 0.96426,0.423333 1.65819,1.117267 2.08152,2.081527 0.42334,0.94074 0.63459,2.222465 0.63459,3.845243 v 5.92677 c 0,1.622777 -0.21125,2.916124 -0.63459,3.880383 -0.42333,0.940741 -1.11726,1.622537 -2.08152,2.04587 -0.94074,0.423333 -2.22247,0.635102 -3.84525,0.635102 h -7.585063 v -3.550686 h -1.833996 v 4.467944 c 0,0.611481 0.305776,0.917257 0.917257,0.917257 h 8.501802 c 2.93982,0 5.06811,-0.670173 6.38515,-2.01073 1.34055,-1.340555 2.01072,-3.468844 2.01072,-6.38514 v -5.92677 c 0,-2.916297 -0.67017,-5.044585 -2.01072,-6.38514 -1.34057,-1.340556 -3.46885,-2.011247 -6.38515,-2.011247 z"
       id="path130"
       inkscape:connector-curvature="0" />
    <path
       style="fill:#ffffff;stroke-width:0.32406992"
       d="m 121.12703,53.238281 h 21.85438 c 0.51886,0 0.93656,0.426139 0.93656,0.95547 v 0.548279 c 0,0.52933 -0.4177,0.95547 -0.93656,0.95547 h -21.85438 c -0.51886,0 -0.93656,-0.42614 -0.93656,-0.95547 v -0.548279 c 0,-0.529331 0.4177,-0.95547 0.93656,-0.95547 z"
       id="rect27"
       inkscape:connector-curvature="0" />
    <path
       style="fill:#ffffff;stroke-width:0.32406992"
       d="m 121.12703,73.502567 h 21.85438 c 0.51886,0 0.93656,0.426139 0.93656,0.95547 v 0.548279 c 0,0.529331 -0.4177,0.95547 -0.93656,0.95547 h -21.85438 c -0.51886,0 -0.93656,-0.426139 -0.93656,-0.95547 v -0.548279 c 0,-0.529331 0.4177,-0.95547 0.93656,-0.95547 z"
       id="rect27-7"
       inkscape:connector-curvature="0" />
    <path
       style="fill:#d40000;stroke-width:0.28315875"
       d="m 120.90549,63.635005 h 16.6848 c 0.39612,0 0.71502,0.42614 0.71502,0.955471 v 0.548279 c 0,0.529331 -0.3189,0.95547 -0.71502,0.95547 h -16.6848 c -0.39612,0 -0.71502,-0.426139 -0.71502,-0.95547 v -0.548279 c 0,-0.529331 0.3189,-0.955471 0.71502,-0.955471 z"
       id="rect27-7-1"
       inkscape:connector-curvature="0" />
  </g>
</svg>
